<?xml version="1.0" standalone="no"?>
<!DOCTYPE svg PUBLIC "-//W3C//DTD SVG 20010904//EN"
 "http://www.w3.org/TR/2001/REC-SVG-20010904/DTD/svg10.dtd">
<svg version="1.0" xmlns="http://www.w3.org/2000/svg"
 width="700.000000pt" height="700.000000pt" viewBox="0 0 700.000000 700.000000"
 preserveAspectRatio="xMidYMid meet">
<metadata>
Created by potrace 1.14, written by Peter Selinger 2001-2017
</metadata>
<g transform="translate(0.000000,700.000000) scale(0.100000,-0.100000)"
fill="#000000" stroke="none">
<path d="M3491 6388 c-5 -13 -55 -117 -110 -232 -56 -114 -101 -211 -101 -215
0 -3 9 -12 21 -19 19 -12 22 -8 62 77 l42 91 110 0 110 0 35 -90 c19 -50 39
-90 43 -90 15 0 47 21 47 30 0 6 -16 44 -35 86 -19 41 -35 77 -35 79 0 3 -11
28 -24 57 -13 29 -43 97 -66 151 -37 84 -46 97 -67 97 -15 0 -27 -8 -32 -22z
m42 -85 c3 -10 19 -51 36 -92 17 -40 31 -74 31 -75 0 -4 -160 1 -164 5 -6 6
76 179 84 179 4 0 10 -8 13 -17z"/>
<path d="M3917 6351 c-5 -22 15 -32 106 -51 42 -8 57 -16 57 -28 0 -9 -12 -64
-26 -122 -31 -125 -26 -107 -48 -203 -10 -43 -17 -79 -15 -81 2 -2 15 -6 29
-9 25 -6 25 -5 54 131 16 75 35 154 43 176 7 21 13 48 13 60 0 44 11 48 86 31
38 -8 76 -18 85 -21 12 -3 18 3 21 20 5 23 1 25 -186 70 -105 25 -196 46 -202
46 -7 0 -14 -9 -17 -19z"/>
<path d="M2865 6329 c-94 -18 -120 -26 -118 -35 0 -5 4 -25 7 -45 3 -20 8 -42
10 -50 3 -8 7 -25 10 -39 2 -14 11 -52 19 -85 8 -33 22 -96 32 -140 9 -44 18
-86 21 -92 4 -15 23 -16 43 -4 13 8 13 18 1 68 -8 32 -14 60 -15 63 0 3 -7 30
-14 60 -21 91 -39 173 -46 207 -7 34 -12 31 85 48 30 5 80 -24 91 -52 15 -41
3 -83 -36 -123 l-35 -36 119 -87 c66 -48 124 -87 130 -87 10 0 36 39 29 44 -2
2 -44 31 -95 64 -96 64 -112 80 -95 91 5 3 20 25 32 48 30 58 21 111 -26 153
-19 16 -45 30 -57 31 -12 0 -29 2 -37 3 -8 1 -33 -1 -55 -5z"/>
<path d="M2318 6137 c-70 -34 -128 -65 -128 -68 0 -4 37 -83 81 -175 45 -93
90 -188 100 -211 10 -24 21 -43 25 -43 3 0 66 29 140 65 123 60 133 67 124 85
-6 11 -12 20 -14 20 -3 0 -52 -22 -110 -50 -58 -27 -108 -50 -110 -50 -7 0
-78 151 -74 156 2 2 52 26 112 54 96 46 106 53 95 68 -8 9 -14 19 -15 20 -2 2
-51 -19 -110 -47 -59 -29 -108 -50 -109 -49 -8 8 -67 140 -64 142 2 1 50 24
107 51 56 27 102 52 102 56 0 14 -12 39 -19 38 -3 0 -63 -28 -133 -62z"/>
<path d="M4446 5983 c-49 -114 -91 -215 -93 -224 -5 -17 36 -35 48 -21 9 9
190 435 186 438 -1 1 -13 5 -27 9 -25 6 -28 0 -114 -202z"/>
<path d="M4865 5970 c-108 -24 -204 -139 -211 -253 -7 -130 95 -241 221 -241
71 0 97 9 152 52 85 68 129 185 104 278 -31 114 -153 189 -266 164z m131 -66
c80 -38 106 -139 62 -236 -45 -98 -116 -145 -208 -136 -59 6 -94 31 -121 86
-46 92 4 217 111 281 42 25 109 27 156 5z"/>
<path d="M1885 5858 c-27 -10 -101 -55 -149 -92 -22 -18 -23 -15 74 -136 41
-52 102 -130 135 -173 32 -43 62 -80 66 -82 4 -3 16 3 28 13 20 17 20 17 -25
75 l-45 59 46 46 c73 71 90 136 55 207 -35 71 -115 107 -185 83z m110 -83 c55
-56 45 -129 -27 -190 -26 -22 -34 -25 -42 -13 -6 8 -39 51 -74 96 l-63 82 48
30 c66 42 111 41 158 -5z"/>
<path d="M3458 5635 c-2 -2 -48 -5 -103 -9 -55 -3 -109 -7 -120 -10 -11 -2
-42 -7 -70 -10 -79 -11 -273 -62 -371 -97 -396 -144 -762 -430 -1004 -786 -34
-51 -66 -93 -70 -93 -4 0 -52 24 -106 53 -54 30 -137 74 -184 99 -47 25 -166
88 -266 141 -99 54 -188 97 -196 97 -46 0 -117 -104 -104 -154 7 -30 35 -48
191 -130 126 -67 558 -298 564 -302 1 -1 -15 -49 -37 -106 -22 -57 -54 -152
-71 -213 -26 -96 -35 -136 -56 -265 -7 -41 -18 -220 -18 -290 0 -245 52 -523
142 -748 12 -29 21 -55 21 -58 0 -8 -210 -215 -305 -299 -50 -44 -92 -82 -95
-85 -21 -21 -206 -172 -300 -245 -63 -50 -126 -100 -140 -111 -14 -12 -38 -33
-55 -47 -28 -24 -14 -22 240 43 392 98 654 172 864 243 l74 25 46 -52 c232
-261 497 -451 797 -573 140 -57 303 -104 409 -119 28 -3 53 -8 56 -10 30 -18
414 -26 539 -11 128 15 146 18 248 42 558 134 1038 493 1323 990 l34 60 50 0
50 0 2 120 c1 78 6 134 16 160 l15 40 71 3 71 3 0 69 c0 49 -4 70 -12 71 -7 1
-30 2 -51 2 -29 0 -36 4 -33 16 27 99 53 292 55 408 l1 32 73 3 72 3 0 100 0
100 -75 3 -76 3 -16 117 c-10 64 -19 126 -22 137 -25 112 -78 281 -115 368
l-20 47 73 0 72 0 0 103 -1 102 -102 1 -103 1 0 -41 0 -41 -28 50 c-16 28 -45
75 -65 107 -31 47 -36 64 -36 110 2 117 7 108 -61 108 l-60 0 -114 114 -113
113 53 -2 54 -2 0 73 0 73 -32 3 c-63 6 -120 -3 -114 -18 7 -18 -22 -31 -60
-28 -18 2 -80 34 -140 72 -253 161 -516 259 -824 307 -19 3 -84 8 -145 11 -60
3 -127 7 -147 8 -21 2 -39 2 -40 1z"/>
<path d="M5389 5534 c-24 -20 -46 -39 -49 -43 -3 -4 -43 -38 -90 -76 -47 -38
-87 -72 -90 -75 -3 -3 -22 -19 -42 -34 -36 -27 -37 -29 -22 -52 l16 -24 28 23
c15 12 84 70 154 130 69 59 126 105 126 102 0 -3 -14 -69 -30 -148 -17 -78
-33 -153 -35 -167 -3 -14 -13 -60 -24 -103 l-19 -78 25 -10 c22 -8 35 -1 112
63 47 40 95 81 105 90 11 10 50 42 88 71 37 28 67 57 67 62 0 6 -6 18 -13 28
-13 16 -25 8 -156 -103 -78 -67 -143 -120 -145 -118 -2 2 16 105 40 218 3 14
8 41 12 60 4 19 8 37 8 40 1 3 7 32 14 65 7 33 14 67 17 76 3 10 -3 19 -13 23
-10 3 -23 8 -29 11 -6 3 -31 -11 -55 -31z"/>
<path d="M1482 5458 c-84 -14 -151 -76 -177 -162 -58 -193 170 -386 357 -302
78 35 131 116 131 203 0 153 -161 288 -311 261z m110 -71 c50 -21 108 -76 129
-122 69 -150 -75 -285 -229 -215 -83 38 -137 113 -141 195 -5 120 119 193 241
142z"/>
<path d="M6074 5101 c-2 -2 -4 -35 -4 -73 l0 -69 73 3 72 3 0 69 -1 70 -68 0
c-37 1 -70 -1 -72 -3z"/>
<path d="M5639 4962 l-36 -3 1 -102 1 -102 103 0 102 -1 0 103 0 103 -47 1
c-27 0 -57 1 -68 2 -11 1 -36 1 -56 -1z"/>
<path d="M590 4845 c-25 -7 -117 -39 -205 -70 -88 -32 -170 -60 -182 -62 -40
-9 -39 -10 97 -86 68 -38 140 -55 207 -50 29 2 123 28 210 59 87 31 174 60
193 66 55 16 55 18 -7 54 -32 19 -65 39 -73 44 -79 50 -165 66 -240 45z"/>
<path d="M990 4639 c-30 -6 -111 -34 -279 -95 l-43 -16 66 -39 c121 -70 163
-70 356 -4 74 26 141 51 149 55 10 5 -13 22 -71 54 -90 49 -121 56 -178 45z"/>
<path d="M6145 4610 c-2 -3 -4 -49 -4 -102 l-1 -98 105 0 105 0 0 103 0 104
-101 -1 c-55 0 -102 -3 -104 -6z"/>
<path d="M1329 4485 c-3 -2 -14 -6 -25 -8 -10 -2 -26 -7 -34 -10 -8 -3 -50
-18 -93 -33 -43 -15 -74 -30 -70 -34 27 -25 113 -60 148 -60 22 0 88 17 147
37 119 41 119 42 33 87 -45 24 -94 33 -106 21z"/>
<path d="M5817 4483 c-2 -5 -4 -37 -3 -73 l1 -64 71 -1 72 -1 1 73 1 73 -69 0
c-39 0 -72 -3 -74 -7z"/>
<path d="M5630 4055 l0 -115 115 0 115 0 0 115 0 115 -115 0 -115 0 0 -115z"/>
<path d="M5903 3838 l2 -103 100 0 100 0 3 103 3 102 -105 0 -104 0 1 -102z"/>
<path d="M6110 3353 c0 -115 3 -153 13 -154 18 -1 205 -1 254 0 l42 1 -2 153
-2 152 -152 1 -153 0 0 -153z"/>
<path d="M5639 3345 c0 -30 -1 -68 -1 -85 0 -77 -9 -71 104 -68 l103 3 0 90
c1 50 -1 95 -3 102 -2 8 -35 12 -103 12 l-99 0 -1 -54z"/>
<path d="M5748 2920 c-2 -8 -3 -62 -3 -120 l1 -105 124 0 124 0 0 113 c1 63
-1 117 -4 121 -3 3 -58 7 -122 7 -97 0 -117 -3 -120 -16z"/>
<path d="M6163 2602 c-21 -3 -23 -8 -23 -77 l0 -73 75 -1 76 -1 -3 77 -3 77
-50 0 c-27 1 -60 0 -72 -2z"/>
<path d="M5352 2371 l3 -75 70 -1 70 0 0 75 0 75 -73 1 -73 0 3 -75z"/>
<path d="M5695 2369 c-3 -5 -8 -207 -6 -234 1 -8 205 -13 241 -6 3 1 5 55 5
121 0 100 -3 120 -15 120 -151 4 -223 4 -225 -1z"/>
<path d="M5262 1972 c-22 -3 -23 -7 -18 -55 3 -29 8 -83 12 -122 3 -38 7 -74
8 -80 2 -14 -34 -11 -190 16 -36 6 -66 10 -68 8 -2 -2 -6 -16 -10 -31 -6 -25
-4 -28 21 -29 16 0 39 -2 53 -5 14 -2 57 -9 95 -14 39 -6 80 -13 92 -15 18 -4
89 -70 153 -144 l21 -25 21 22 22 21 -82 85 c-79 82 -82 87 -83 133 0 27 -2
57 -4 68 -2 11 -6 53 -9 94 -3 41 -7 75 -8 75 -2 1 -14 0 -26 -2z"/>
<path d="M1629 1788 c-79 -83 -155 -162 -169 -175 l-25 -23 22 -22 22 -22 48
52 c27 29 52 52 56 52 5 0 27 -15 50 -34 23 -18 53 -37 66 -41 76 -23 151 -2
191 55 52 72 33 151 -59 247 l-59 62 -143 -151z m182 41 c59 -61 65 -122 17
-175 -45 -48 -99 -51 -160 -8 -24 16 -43 35 -43 41 0 11 142 173 152 173 2 0
17 -14 34 -31z"/>
<path d="M4744 1554 c-103 -69 -155 -145 -159 -237 -3 -48 1 -70 20 -107 60
-119 187 -156 341 -99 70 25 87 39 78 63 -7 19 -9 19 -96 -13 -144 -53 -268 6
-282 133 -9 80 46 171 136 224 31 18 35 34 14 51 -10 8 -22 5 -52 -15z"/>
<path d="M2206 1522 c-10 -21 -61 -115 -113 -211 -91 -164 -95 -175 -77 -188
31 -22 23 -32 131 167 80 147 106 195 109 198 5 7 93 -58 108 -79 16 -24 13
-60 -10 -94 -19 -30 -38 -38 -94 -41 -31 -1 -45 -6 -44 -15 2 -31 58 -275 64
-282 4 -4 18 -5 32 -2 l24 6 -32 125 c-30 117 -31 124 -13 124 35 0 99 32 119
60 55 77 15 163 -107 230 -77 42 -78 42 -97 2z"/>
<path d="M2812 1253 c-12 -44 -49 -175 -90 -321 -20 -71 -26 -105 -18 -107 6
-2 18 -5 28 -8 13 -5 20 10 38 76 12 45 33 120 47 167 60 205 62 214 50 222
-27 17 -45 7 -55 -29z"/>
<path d="M4044 1272 c-16 -2 -24 -12 -28 -35 -8 -44 -12 -61 -29 -147 -9 -41
-18 -86 -21 -100 -2 -14 -14 -72 -26 -129 -11 -57 -20 -105 -18 -106 2 -1 13
-6 25 -9 18 -6 23 -3 27 16 3 13 12 57 21 99 l15 75 100 23 c55 12 104 19 110
16 5 -3 32 -37 61 -75 28 -39 55 -70 59 -70 4 0 15 9 24 19 17 19 16 22 -21
69 -21 27 -83 107 -137 178 -138 180 -138 179 -162 176z m81 -168 c31 -41 55
-77 54 -79 -2 -2 -39 -12 -82 -23 l-79 -20 6 31 c3 18 8 42 10 54 3 11 8 42
11 67 4 25 11 46 15 46 5 0 34 -34 65 -76z"/>
<path d="M3159 1202 c-15 -6 -4 -41 80 -249 90 -227 98 -243 121 -243 23 0 37
23 144 232 111 216 117 232 100 245 -10 7 -20 13 -24 13 -3 0 -52 -93 -109
-207 l-104 -206 -74 189 c-40 104 -78 199 -83 212 -10 22 -22 26 -51 14z"/>
</g>
</svg>
